<svg xmlns="http://www.w3.org/2000/svg" xmlns:xlink="http://www.w3.org/1999/xlink" width="500" zoomAndPan="magnify" viewBox="0 0 375 374.999991" height="500" preserveAspectRatio="xMidYMid meet" version="1.2"><defs><clipPath id="0cc989d77a"><path d="M 3.523438 3.523438 L 371.476562 3.523438 L 371.476562 371.476562 L 3.523438 371.476562 Z M 3.523438 3.523438 "/></clipPath><clipPath id="9f7c4bad68"><path d="M 187.5 3.523438 C 85.894531 3.523438 3.523438 85.894531 3.523438 187.5 C 3.523438 289.105469 85.894531 371.476562 187.5 371.476562 C 289.105469 371.476562 371.476562 289.105469 371.476562 187.5 C 371.476562 85.894531 289.105469 3.523438 187.5 3.523438 Z M 187.5 3.523438 "/></clipPath></defs><g id="af69106357"><g clip-rule="nonzero" clip-path="url(#0cc989d77a)"><g clip-rule="nonzero" clip-path="url(#9f7c4bad68)"><path style=" stroke:none;fill-rule:nonzero;fill:#ffc300;fill-opacity:1;" d="M 3.523438 3.523438 L 371.476562 3.523438 L 371.476562 371.476562 L 3.523438 371.476562 Z M 3.523438 3.523438 "/></g></g><path style=" stroke:none;fill-rule:nonzero;fill:#000000;fill-opacity:1;" d="M 217.417969 271.042969 C 210.800781 255.183594 200.433594 242.429688 188.410156 230.839844 C 176.328125 219.199219 162.101562 210.359375 148.902344 200.175781 C 142.5625 195.28125 136.507812 189.972656 132.121094 183.136719 C 122.035156 167.40625 123.28125 150.621094 135.6875 135.761719 C 141.035156 129.351562 147.550781 124.253906 154.644531 119.882812 C 155.320312 119.464844 155.988281 118.898438 157.152344 119.667969 C 157.414062 121.695312 155.746094 123.234375 154.914062 124.882812 C 147.800781 138.953125 153.285156 157.984375 165.824219 168.191406 C 168.464844 170.34375 170.230469 169.183594 172.144531 167.371094 C 178.257812 161.578125 184.558594 156.046875 191.90625 151.785156 C 200.101562 147.027344 209.402344 146.265625 218.339844 144.214844 C 222.769531 143.195312 227.277344 142.53125 231.765625 141.707031 C 232.46875 143.9375 230.800781 144.667969 229.953125 145.722656 C 226.878906 149.535156 224.226562 153.554688 222.019531 157.972656 C 219.285156 163.433594 220.804688 167.855469 224.738281 171.554688 C 235.179688 181.382812 247.957031 186.214844 261.960938 188.214844 C 269.394531 189.273438 275.042969 185.226562 280.554688 181.359375 C 286.304688 177.332031 292.046875 173.117188 294.9375 166.238281 C 296.34375 162.894531 296.746094 159.453125 296.523438 155.894531 C 296.339844 153.03125 294.644531 151.179688 292.261719 149.867188 C 288.429688 147.757812 284.277344 146.5 280.117188 145.242188 C 275.347656 143.800781 271.074219 141.679688 269.359375 136.015625 C 276.066406 132.832031 282.835938 133.160156 289.722656 133.960938 C 295.835938 134.671875 301.855469 137.089844 308.167969 134.898438 C 310.488281 134.09375 311.121094 135.679688 310.695312 137.617188 C 310.292969 139.457031 309.777344 141.320312 308.992188 143.027344 C 305.4375 150.730469 305.890625 158.257812 309.601562 165.757812 C 312.566406 171.75 315.148438 177.835938 314.144531 184.8125 C 313.640625 188.304688 313.046875 191.707031 310.246094 194.8125 C 308.828125 191.277344 307.976562 187.902344 305.980469 185.035156 C 304.375 182.726562 302.804688 181.804688 299.917969 183.3125 C 292.308594 187.289062 285.292969 192.140625 278.320312 197.089844 C 276.550781 198.347656 274.707031 199.492188 272.910156 200.714844 C 266.046875 205.390625 259.265625 205.535156 252.636719 200.289062 C 249.960938 198.171875 247.570312 197.929688 245.308594 200.84375 C 243.441406 203.257812 242.910156 205.195312 245.535156 207.8125 C 253.21875 215.460938 259.089844 224.359375 262.53125 234.742188 C 262.824219 235.625 263.335938 236.433594 264.007812 237.808594 C 268.652344 233.289062 269.617188 227.269531 272.40625 221.183594 C 282.828125 233.730469 287.417969 248.136719 291.449219 264.132812 C 303.160156 248.03125 306.828125 230.261719 309.425781 211.628906 C 323.730469 233.488281 303.160156 297.28125 277.152344 311.777344 C 278.292969 302.066406 277.65625 292.878906 274.605469 283.753906 C 262.109375 311.707031 242.441406 333.1875 217.515625 350.324219 C 225.773438 323.804688 227.585938 297.582031 217.417969 271.042969 Z M 217.417969 271.042969 "/><path style=" stroke:none;fill-rule:nonzero;fill:#000000;fill-opacity:1;" d="M 53.117188 177.011719 C 54.578125 142.949219 69.925781 118.128906 100.53125 103.058594 C 97.625 101.113281 93.183594 101.246094 83.457031 102.636719 C 77.78125 103.449219 72.265625 105.0625 66.5 106.261719 C 66.453125 103.472656 68.140625 102.324219 69.351562 100.953125 C 80.636719 88.195312 94.714844 79.410156 110.109375 72.554688 C 127.710938 64.714844 146.183594 59.972656 165.3125 58.074219 C 175 57.113281 184.785156 56.707031 194.496094 58.46875 C 195.941406 58.730469 197.4375 58.964844 199.636719 58.113281 C 195.808594 52.503906 189.847656 49.734375 184.71875 45.75 C 207.414062 37.957031 265.527344 80.890625 265.417969 105.765625 C 237.390625 80.019531 203.976562 74.425781 168.164062 78.171875 C 157.476562 79.289062 146.820312 81.328125 136.453125 87.203125 C 144.355469 91.457031 150.621094 96.429688 155.46875 103.816406 C 151.167969 105.898438 147.167969 107.746094 143.25 109.757812 C 132.140625 115.460938 122.191406 122.660156 114.667969 132.796875 C 102.003906 149.851562 101.714844 169.519531 113.632812 189.105469 C 122.257812 203.273438 134.828125 213.195312 148.472656 222.085938 C 167.867188 234.722656 185.363281 249.445312 196.917969 269.957031 C 208.40625 290.34375 211.90625 311.875 204.636719 334.585938 C 204.238281 335.824219 204.136719 337.316406 202.667969 338.03125 C 201 337.40625 200.894531 335.738281 200.460938 334.402344 C 194.847656 317.003906 183.089844 304.632812 168.152344 294.886719 C 155.820312 286.84375 142.261719 281.3125 128.769531 275.582031 C 112.738281 268.769531 97.300781 260.835938 84.421875 248.75 C 80.730469 245.285156 77.605469 241.375 75.199219 236.921875 C 74.382812 235.417969 73.523438 233.855469 74.058594 231.082031 C 93.625 250.828125 119.519531 252.535156 144.238281 258.875 C 143.988281 256.324219 142.378906 255.996094 141.25 255.25 C 129.132812 247.25 115.929688 241.023438 104.023438 232.6875 C 90.628906 223.308594 78.890625 212.433594 72.246094 196.996094 C 69.363281 190.292969 68.632812 183.164062 67.382812 175.992188 C 61.359375 186.28125 62.59375 197.800781 61.777344 209.09375 C 55.320312 199.421875 53.683594 188.554688 53.117188 177.011719 Z M 53.117188 177.011719 "/><path style=" stroke:none;fill-rule:nonzero;fill:#000000;fill-opacity:1;" d="M 229.554688 117.246094 C 220.574219 114.871094 211.6875 114.050781 202.84375 112.890625 C 195.5 111.929688 189.675781 107.738281 183.382812 102.847656 C 188.472656 99.277344 193.695312 98.140625 199 97.859375 C 206.152344 97.480469 213.332031 97.472656 220.476562 98.570312 C 222.855469 98.9375 224.789062 99.773438 225.453125 102.078125 C 227.664062 109.792969 234.28125 112.988281 240.242188 116.898438 C 241.300781 117.589844 242.90625 117.691406 243.242188 119.914062 C 238.542969 119.707031 234.207031 118.539062 229.554688 117.246094 Z M 229.554688 117.246094 "/></g></svg>